<mxfile host="Electron" agent="Mozilla/5.0 (X11; Linux x86_64) AppleWebKit/537.36 (KHTML, like Gecko) draw.io/24.7.5 Chrome/126.0.6478.183 Electron/31.3.0 Safari/537.36" version="24.7.5">
  <diagram name="第 1 页" id="huckOj3Etd9BhcJPRhfS">
    <mxGraphModel dx="1374" dy="786" grid="1" gridSize="10" guides="1" tooltips="1" connect="1" arrows="1" fold="1" page="0" pageScale="1" pageWidth="827" pageHeight="1169" math="0" shadow="0">
      <root>
        <mxCell id="0" />
        <mxCell id="1" parent="0" />
        <mxCell id="XvRPk8cnXIrlGWhQ7L3I-3" value="&lt;font face=&quot;FreeMono&quot;&gt;clock&lt;/font&gt;" style="text;strokeColor=none;align=right;fillColor=none;html=1;verticalAlign=middle;whiteSpace=wrap;rounded=0;" parent="1" vertex="1">
          <mxGeometry x="-480" y="-130" width="100" height="20" as="geometry" />
        </mxCell>
        <mxCell id="XvRPk8cnXIrlGWhQ7L3I-4" value="" style="endArrow=none;html=1;rounded=0;" parent="1" edge="1">
          <mxGeometry width="50" height="50" relative="1" as="geometry">
            <mxPoint x="-360" y="-110" as="sourcePoint" />
            <mxPoint x="80" y="-130" as="targetPoint" />
            <Array as="points">
              <mxPoint x="-330" y="-110" />
              <mxPoint x="-310" y="-130" />
              <mxPoint x="-170" y="-130" />
              <mxPoint x="-150" y="-110" />
              <mxPoint x="-10" y="-110" />
              <mxPoint x="10" y="-130" />
            </Array>
          </mxGeometry>
        </mxCell>
        <mxCell id="XvRPk8cnXIrlGWhQ7L3I-5" value="&lt;font face=&quot;FreeMono&quot;&gt;PC&lt;/font&gt;" style="text;strokeColor=none;align=right;fillColor=none;html=1;verticalAlign=middle;whiteSpace=wrap;rounded=0;" parent="1" vertex="1">
          <mxGeometry x="-480" y="-100" width="100" height="20" as="geometry" />
        </mxCell>
        <mxCell id="XvRPk8cnXIrlGWhQ7L3I-7" value="" style="endArrow=none;html=1;rounded=0;" parent="1" edge="1">
          <mxGeometry width="50" height="50" relative="1" as="geometry">
            <mxPoint x="-360" y="-80" as="sourcePoint" />
            <mxPoint x="80" y="-80" as="targetPoint" />
            <Array as="points">
              <mxPoint x="-320" y="-80" />
              <mxPoint x="-300" y="-100" />
              <mxPoint y="-100" />
              <mxPoint x="20" y="-80" />
            </Array>
          </mxGeometry>
        </mxCell>
        <mxCell id="XvRPk8cnXIrlGWhQ7L3I-8" value="" style="endArrow=none;html=1;rounded=0;" parent="1" edge="1">
          <mxGeometry width="50" height="50" relative="1" as="geometry">
            <mxPoint x="-360" y="-100" as="sourcePoint" />
            <mxPoint x="80" y="-100" as="targetPoint" />
            <Array as="points">
              <mxPoint x="-320" y="-100" />
              <mxPoint x="-300" y="-80" />
              <mxPoint y="-80" />
              <mxPoint x="20" y="-100" />
            </Array>
          </mxGeometry>
        </mxCell>
        <mxCell id="XvRPk8cnXIrlGWhQ7L3I-13" value="&lt;font face=&quot;FreeMono&quot;&gt;pc&lt;/font&gt;" style="text;strokeColor=none;align=center;fillColor=none;html=1;verticalAlign=middle;whiteSpace=wrap;rounded=0;" parent="1" vertex="1">
          <mxGeometry x="-170" y="-100" width="40" height="20" as="geometry" />
        </mxCell>
        <mxCell id="XvRPk8cnXIrlGWhQ7L3I-17" value="&lt;font face=&quot;FreeMono&quot;&gt;Instr. fetch&lt;/font&gt;" style="text;strokeColor=none;align=right;fillColor=none;html=1;verticalAlign=middle;whiteSpace=wrap;rounded=0;" parent="1" vertex="1">
          <mxGeometry x="-480" y="-70" width="100" height="20" as="geometry" />
        </mxCell>
        <mxCell id="XvRPk8cnXIrlGWhQ7L3I-18" value="" style="endArrow=none;html=1;rounded=0;" parent="1" edge="1">
          <mxGeometry width="50" height="50" relative="1" as="geometry">
            <mxPoint x="-360" y="-70" as="sourcePoint" />
            <mxPoint x="80" y="-70" as="targetPoint" />
            <Array as="points">
              <mxPoint x="-280" y="-70" />
              <mxPoint x="-260" y="-50" />
              <mxPoint x="40" y="-50" />
              <mxPoint x="60" y="-70" />
            </Array>
          </mxGeometry>
        </mxCell>
        <mxCell id="XvRPk8cnXIrlGWhQ7L3I-19" value="" style="endArrow=none;html=1;rounded=0;" parent="1" edge="1">
          <mxGeometry width="50" height="50" relative="1" as="geometry">
            <mxPoint x="-360" y="-50" as="sourcePoint" />
            <mxPoint x="80" y="-50" as="targetPoint" />
            <Array as="points">
              <mxPoint x="-280" y="-50" />
              <mxPoint x="-260" y="-70" />
              <mxPoint x="40" y="-70" />
              <mxPoint x="60" y="-50" />
            </Array>
          </mxGeometry>
        </mxCell>
        <mxCell id="XvRPk8cnXIrlGWhQ7L3I-20" value="&lt;font face=&quot;FreeMono&quot;&gt;instruction&lt;/font&gt;" style="text;strokeColor=none;align=center;fillColor=none;html=1;verticalAlign=middle;whiteSpace=wrap;rounded=0;" parent="1" vertex="1">
          <mxGeometry x="-180" y="-70" width="120" height="20" as="geometry" />
        </mxCell>
        <mxCell id="XvRPk8cnXIrlGWhQ7L3I-21" value="" style="endArrow=none;html=1;rounded=0;" parent="1" edge="1">
          <mxGeometry width="50" height="50" relative="1" as="geometry">
            <mxPoint x="-360" y="-40" as="sourcePoint" />
            <mxPoint x="80" y="-20" as="targetPoint" />
            <Array as="points">
              <mxPoint x="-220" y="-40" />
              <mxPoint x="-200" y="-20" />
            </Array>
          </mxGeometry>
        </mxCell>
        <mxCell id="XvRPk8cnXIrlGWhQ7L3I-22" value="" style="endArrow=none;html=1;rounded=0;" parent="1" edge="1">
          <mxGeometry width="50" height="50" relative="1" as="geometry">
            <mxPoint x="-360" y="-20" as="sourcePoint" />
            <mxPoint x="80" y="-40" as="targetPoint" />
            <Array as="points">
              <mxPoint x="-220" y="-20" />
              <mxPoint x="-200" y="-40" />
            </Array>
          </mxGeometry>
        </mxCell>
        <mxCell id="XvRPk8cnXIrlGWhQ7L3I-23" value="&lt;font face=&quot;FreeMono&quot;&gt;Instr. decode&lt;/font&gt;" style="text;strokeColor=none;align=right;fillColor=none;html=1;verticalAlign=middle;whiteSpace=wrap;rounded=0;" parent="1" vertex="1">
          <mxGeometry x="-480" y="-40" width="100" height="20" as="geometry" />
        </mxCell>
        <mxCell id="XvRPk8cnXIrlGWhQ7L3I-24" value="&lt;font face=&quot;FreeMono&quot;&gt;register out&lt;/font&gt;" style="text;strokeColor=none;align=center;fillColor=none;html=1;verticalAlign=middle;whiteSpace=wrap;rounded=0;" parent="1" vertex="1">
          <mxGeometry x="-130" y="-40" width="120" height="20" as="geometry" />
        </mxCell>
        <mxCell id="XvRPk8cnXIrlGWhQ7L3I-35" value="&lt;font face=&quot;FreeMono&quot;&gt;Execute&lt;/font&gt;" style="text;strokeColor=none;align=right;fillColor=none;html=1;verticalAlign=middle;whiteSpace=wrap;rounded=0;" parent="1" vertex="1">
          <mxGeometry x="-480" y="-10" width="100" height="20" as="geometry" />
        </mxCell>
        <mxCell id="XvRPk8cnXIrlGWhQ7L3I-36" value="" style="endArrow=none;html=1;rounded=0;" parent="1" edge="1">
          <mxGeometry width="50" height="50" relative="1" as="geometry">
            <mxPoint x="-360" y="-10" as="sourcePoint" />
            <mxPoint x="80" y="10" as="targetPoint" />
            <Array as="points">
              <mxPoint x="-120" y="-10" />
              <mxPoint x="-100" y="10" />
            </Array>
          </mxGeometry>
        </mxCell>
        <mxCell id="XvRPk8cnXIrlGWhQ7L3I-37" value="" style="endArrow=none;html=1;rounded=0;" parent="1" edge="1">
          <mxGeometry width="50" height="50" relative="1" as="geometry">
            <mxPoint x="-360" y="10" as="sourcePoint" />
            <mxPoint x="80" y="-10" as="targetPoint" />
            <Array as="points">
              <mxPoint x="-120" y="10" />
              <mxPoint x="-100" y="-10" />
            </Array>
          </mxGeometry>
        </mxCell>
        <mxCell id="XvRPk8cnXIrlGWhQ7L3I-38" value="&lt;font face=&quot;FreeMono&quot;&gt;ALU output&lt;/font&gt;" style="text;strokeColor=none;align=center;fillColor=none;html=1;verticalAlign=middle;whiteSpace=wrap;rounded=0;" parent="1" vertex="1">
          <mxGeometry x="-70" y="-10" width="120" height="20" as="geometry" />
        </mxCell>
        <mxCell id="XvRPk8cnXIrlGWhQ7L3I-39" value="&lt;font face=&quot;FreeMono&quot;&gt;Memory Access&lt;/font&gt;" style="text;strokeColor=none;align=right;fillColor=none;html=1;verticalAlign=middle;whiteSpace=wrap;rounded=0;" parent="1" vertex="1">
          <mxGeometry x="-480" y="20" width="100" height="20" as="geometry" />
        </mxCell>
        <mxCell id="XvRPk8cnXIrlGWhQ7L3I-40" value="" style="endArrow=none;html=1;rounded=0;" parent="1" edge="1">
          <mxGeometry width="50" height="50" relative="1" as="geometry">
            <mxPoint x="-360" y="20" as="sourcePoint" />
            <mxPoint x="80" y="40" as="targetPoint" />
            <Array as="points">
              <mxPoint x="-60" y="20" />
              <mxPoint x="-40" y="40" />
            </Array>
          </mxGeometry>
        </mxCell>
        <mxCell id="XvRPk8cnXIrlGWhQ7L3I-41" value="" style="endArrow=none;html=1;rounded=0;" parent="1" edge="1">
          <mxGeometry width="50" height="50" relative="1" as="geometry">
            <mxPoint x="-360" y="40" as="sourcePoint" />
            <mxPoint x="80" y="20" as="targetPoint" />
            <Array as="points">
              <mxPoint x="-60" y="40" />
              <mxPoint x="-40" y="20" />
            </Array>
          </mxGeometry>
        </mxCell>
        <mxCell id="XvRPk8cnXIrlGWhQ7L3I-42" value="&lt;font face=&quot;FreeMono&quot;&gt;memory data&lt;/font&gt;" style="text;strokeColor=none;align=center;fillColor=none;html=1;verticalAlign=middle;whiteSpace=wrap;rounded=0;" parent="1" vertex="1">
          <mxGeometry x="-40" y="20" width="120" height="20" as="geometry" />
        </mxCell>
        <mxCell id="XvRPk8cnXIrlGWhQ7L3I-46" value="" style="endArrow=none;html=1;rounded=0;" parent="1" edge="1">
          <mxGeometry width="50" height="50" relative="1" as="geometry">
            <mxPoint x="-360" y="50" as="sourcePoint" />
            <mxPoint x="80" y="50" as="targetPoint" />
            <Array as="points">
              <mxPoint x="-330" y="50" />
              <mxPoint x="-310" y="70" />
              <mxPoint x="-10" y="70" />
              <mxPoint x="10" y="50" />
            </Array>
          </mxGeometry>
        </mxCell>
        <mxCell id="XvRPk8cnXIrlGWhQ7L3I-47" value="" style="endArrow=none;html=1;rounded=0;" parent="1" edge="1">
          <mxGeometry width="50" height="50" relative="1" as="geometry">
            <mxPoint x="-360" y="70" as="sourcePoint" />
            <mxPoint x="80" y="70" as="targetPoint" />
            <Array as="points">
              <mxPoint x="-330" y="70" />
              <mxPoint x="-310" y="50" />
              <mxPoint x="-10" y="50" />
              <mxPoint x="10" y="70" />
            </Array>
          </mxGeometry>
        </mxCell>
        <mxCell id="XvRPk8cnXIrlGWhQ7L3I-48" value="&lt;font face=&quot;FreeMono&quot;&gt;Write Back&lt;/font&gt;" style="text;strokeColor=none;align=right;fillColor=none;html=1;verticalAlign=middle;whiteSpace=wrap;rounded=0;" parent="1" vertex="1">
          <mxGeometry x="-480" y="50" width="100" height="20" as="geometry" />
        </mxCell>
        <mxCell id="XvRPk8cnXIrlGWhQ7L3I-49" value="&lt;font face=&quot;FreeMono&quot;&gt;new value&lt;/font&gt;" style="text;strokeColor=none;align=center;fillColor=none;html=1;verticalAlign=middle;whiteSpace=wrap;rounded=0;" parent="1" vertex="1">
          <mxGeometry x="10" y="50" width="70" height="20" as="geometry" />
        </mxCell>
        <mxCell id="XvRPk8cnXIrlGWhQ7L3I-51" value="" style="endArrow=none;dashed=1;html=1;rounded=0;" parent="1" edge="1">
          <mxGeometry width="50" height="50" relative="1" as="geometry">
            <mxPoint y="120" as="sourcePoint" />
            <mxPoint y="-160" as="targetPoint" />
          </mxGeometry>
        </mxCell>
        <mxCell id="XvRPk8cnXIrlGWhQ7L3I-52" value="" style="endArrow=none;dashed=1;html=1;rounded=0;" parent="1" edge="1">
          <mxGeometry width="50" height="50" relative="1" as="geometry">
            <mxPoint x="-320" y="120" as="sourcePoint" />
            <mxPoint x="-320" y="-160" as="targetPoint" />
          </mxGeometry>
        </mxCell>
        <mxCell id="5dSK97vlMvo3FxUkhamd-1" value="&lt;font face=&quot;FreeMono&quot;&gt;old&lt;/font&gt;" style="text;strokeColor=none;align=center;fillColor=none;html=1;verticalAlign=middle;whiteSpace=wrap;rounded=0;" vertex="1" parent="1">
          <mxGeometry x="-360" y="-100" width="40" height="20" as="geometry" />
        </mxCell>
        <mxCell id="5dSK97vlMvo3FxUkhamd-2" value="&lt;font face=&quot;FreeMono&quot;&gt;old&lt;/font&gt;" style="text;strokeColor=none;align=center;fillColor=none;html=1;verticalAlign=middle;whiteSpace=wrap;rounded=0;" vertex="1" parent="1">
          <mxGeometry x="-340" y="-70" width="40" height="20" as="geometry" />
        </mxCell>
        <mxCell id="5dSK97vlMvo3FxUkhamd-3" value="&lt;font face=&quot;FreeMono&quot;&gt;old&lt;/font&gt;" style="text;strokeColor=none;align=center;fillColor=none;html=1;verticalAlign=middle;whiteSpace=wrap;rounded=0;" vertex="1" parent="1">
          <mxGeometry x="-310" y="-40" width="40" height="20" as="geometry" />
        </mxCell>
        <mxCell id="5dSK97vlMvo3FxUkhamd-5" value="&lt;font face=&quot;FreeMono&quot;&gt;old&lt;/font&gt;" style="text;strokeColor=none;align=center;fillColor=none;html=1;verticalAlign=middle;whiteSpace=wrap;rounded=0;" vertex="1" parent="1">
          <mxGeometry x="-260" y="-10" width="40" height="20" as="geometry" />
        </mxCell>
        <mxCell id="5dSK97vlMvo3FxUkhamd-6" value="&lt;font face=&quot;FreeMono&quot;&gt;old&lt;/font&gt;" style="text;strokeColor=none;align=center;fillColor=none;html=1;verticalAlign=middle;whiteSpace=wrap;rounded=0;" vertex="1" parent="1">
          <mxGeometry x="-220" y="20" width="40" height="20" as="geometry" />
        </mxCell>
        <mxCell id="5dSK97vlMvo3FxUkhamd-7" value="&lt;font face=&quot;FreeMono&quot;&gt;old&lt;/font&gt;" style="text;strokeColor=none;align=center;fillColor=none;html=1;verticalAlign=middle;whiteSpace=wrap;rounded=0;" vertex="1" parent="1">
          <mxGeometry x="-180" y="50" width="40" height="20" as="geometry" />
        </mxCell>
        <mxCell id="5dSK97vlMvo3FxUkhamd-8" value="" style="endArrow=none;dashed=1;html=1;rounded=0;dashPattern=12 12;" edge="1" parent="1">
          <mxGeometry width="50" height="50" relative="1" as="geometry">
            <mxPoint x="-270" y="120" as="sourcePoint" />
            <mxPoint x="-270" y="-160" as="targetPoint" />
          </mxGeometry>
        </mxCell>
        <mxCell id="5dSK97vlMvo3FxUkhamd-9" value="" style="endArrow=none;dashed=1;html=1;rounded=0;dashPattern=12 12;" edge="1" parent="1">
          <mxGeometry width="50" height="50" relative="1" as="geometry">
            <mxPoint x="-210" y="120" as="sourcePoint" />
            <mxPoint x="-210" y="-160" as="targetPoint" />
          </mxGeometry>
        </mxCell>
        <mxCell id="5dSK97vlMvo3FxUkhamd-10" value="" style="endArrow=none;dashed=1;html=1;rounded=0;dashPattern=12 12;" edge="1" parent="1">
          <mxGeometry width="50" height="50" relative="1" as="geometry">
            <mxPoint x="-110" y="120" as="sourcePoint" />
            <mxPoint x="-110" y="-160" as="targetPoint" />
          </mxGeometry>
        </mxCell>
        <mxCell id="5dSK97vlMvo3FxUkhamd-11" value="" style="endArrow=none;dashed=1;html=1;rounded=0;dashPattern=12 12;" edge="1" parent="1">
          <mxGeometry width="50" height="50" relative="1" as="geometry">
            <mxPoint x="-50" y="120" as="sourcePoint" />
            <mxPoint x="-50" y="-160" as="targetPoint" />
          </mxGeometry>
        </mxCell>
        <mxCell id="5dSK97vlMvo3FxUkhamd-12" value="" style="endArrow=open;startArrow=open;html=1;rounded=0;startFill=0;endFill=0;" edge="1" parent="1">
          <mxGeometry width="50" height="50" relative="1" as="geometry">
            <mxPoint x="-320" y="110" as="sourcePoint" />
            <mxPoint x="-270" y="110" as="targetPoint" />
          </mxGeometry>
        </mxCell>
        <mxCell id="5dSK97vlMvo3FxUkhamd-13" value="&lt;font style=&quot;font-size: 14px;&quot;&gt;t&lt;sub&gt;IF&lt;/sub&gt;&lt;/font&gt;" style="text;strokeColor=none;align=center;fillColor=none;html=1;verticalAlign=middle;whiteSpace=wrap;rounded=0;" vertex="1" parent="1">
          <mxGeometry x="-310" y="80" width="30" height="20" as="geometry" />
        </mxCell>
        <mxCell id="5dSK97vlMvo3FxUkhamd-14" value="" style="endArrow=open;startArrow=open;html=1;rounded=0;startFill=0;endFill=0;" edge="1" parent="1">
          <mxGeometry width="50" height="50" relative="1" as="geometry">
            <mxPoint x="-270" y="110" as="sourcePoint" />
            <mxPoint x="-210" y="110" as="targetPoint" />
          </mxGeometry>
        </mxCell>
        <mxCell id="5dSK97vlMvo3FxUkhamd-15" value="&lt;font style=&quot;font-size: 14px;&quot;&gt;t&lt;sub&gt;ID&lt;/sub&gt;&lt;/font&gt;" style="text;strokeColor=none;align=center;fillColor=none;html=1;verticalAlign=middle;whiteSpace=wrap;rounded=0;" vertex="1" parent="1">
          <mxGeometry x="-255" y="80" width="30" height="20" as="geometry" />
        </mxCell>
        <mxCell id="5dSK97vlMvo3FxUkhamd-16" value="" style="endArrow=open;startArrow=open;html=1;rounded=0;startFill=0;endFill=0;" edge="1" parent="1">
          <mxGeometry width="50" height="50" relative="1" as="geometry">
            <mxPoint x="-210" y="110" as="sourcePoint" />
            <mxPoint x="-110" y="110" as="targetPoint" />
          </mxGeometry>
        </mxCell>
        <mxCell id="5dSK97vlMvo3FxUkhamd-17" value="&lt;font style=&quot;font-size: 14px;&quot;&gt;t&lt;sub&gt;EX&lt;/sub&gt;&lt;/font&gt;" style="text;strokeColor=none;align=center;fillColor=none;html=1;verticalAlign=middle;whiteSpace=wrap;rounded=0;" vertex="1" parent="1">
          <mxGeometry x="-175" y="80" width="30" height="20" as="geometry" />
        </mxCell>
        <mxCell id="5dSK97vlMvo3FxUkhamd-18" value="" style="endArrow=open;startArrow=open;html=1;rounded=0;startFill=0;endFill=0;" edge="1" parent="1">
          <mxGeometry width="50" height="50" relative="1" as="geometry">
            <mxPoint x="-110" y="110" as="sourcePoint" />
            <mxPoint x="-50" y="110" as="targetPoint" />
          </mxGeometry>
        </mxCell>
        <mxCell id="5dSK97vlMvo3FxUkhamd-19" value="&lt;font style=&quot;font-size: 14px;&quot;&gt;t&lt;sub&gt;ME&lt;/sub&gt;&lt;/font&gt;" style="text;strokeColor=none;align=center;fillColor=none;html=1;verticalAlign=middle;whiteSpace=wrap;rounded=0;" vertex="1" parent="1">
          <mxGeometry x="-95" y="80" width="30" height="20" as="geometry" />
        </mxCell>
        <mxCell id="5dSK97vlMvo3FxUkhamd-20" value="" style="endArrow=open;startArrow=open;html=1;rounded=0;startFill=0;endFill=0;" edge="1" parent="1">
          <mxGeometry width="50" height="50" relative="1" as="geometry">
            <mxPoint x="-50" y="110" as="sourcePoint" />
            <mxPoint y="110" as="targetPoint" />
          </mxGeometry>
        </mxCell>
        <mxCell id="5dSK97vlMvo3FxUkhamd-21" value="&lt;font style=&quot;font-size: 14px;&quot;&gt;t&lt;sub&gt;WB&lt;/sub&gt;&lt;/font&gt;" style="text;strokeColor=none;align=center;fillColor=none;html=1;verticalAlign=middle;whiteSpace=wrap;rounded=0;" vertex="1" parent="1">
          <mxGeometry x="-40" y="80" width="30" height="20" as="geometry" />
        </mxCell>
      </root>
    </mxGraphModel>
  </diagram>
</mxfile>
